<?xml version="1.0" encoding="utf-8"?>
<!-- Generator: Adobe Illustrator 24.1.1, SVG Export Plug-In . SVG Version: 6.00 Build 0)  -->
<svg version="1.1" id="Layer_1" xmlns="http://www.w3.org/2000/svg" xmlns:xlink="http://www.w3.org/1999/xlink" x="0px" y="0px"
	 viewBox="0 0 512 512" style="enable-background:new 0 0 512 512;" xml:space="preserve">
<g>
	<path d="M256,25.6v25.6c56.6,0,107.7,22.9,144.8,60c37.1,37.1,60,88.2,60,144.8c0,56.6-22.9,107.7-60,144.8
		c-37.1,37.1-88.2,60-144.8,60c-56.6,0-107.7-22.9-144.8-60c-37.1-37.1-60-88.2-60-144.8c0-56.6,22.9-107.7,60-144.8
		c37.1-37.1,88.2-60,144.8-60V25.6V0C114.6,0,0,114.6,0,256c0,141.4,114.6,256,256,256c141.4,0,256-114.6,256-256
		C512,114.6,397.4,0,256,0V25.6z"/>
	<path d="M230.4,384v0.3c0,14.1,11.5,25.6,25.6,25.6c14.1,0,25.6-11.5,25.6-25.6V384c0-14.1-11.5-25.6-25.6-25.6
		C241.9,358.4,230.4,369.9,230.4,384"/>
	<path d="M281.6,293l0-0.7c0-5.4,3.4-10.3,8.6-12.1l0.7-0.2c36.7-14.1,59.3-49,59.3-86.1c0-11-2-22.1-6.1-32.9l0,0
		c-14.1-36.7-49-59.3-86.1-59.3c-11,0-22.1,2-32.9,6.1h0c-16.1,6.1-30.1,16.7-40.5,30.4c-8.5,11.3-6.3,27.3,4.9,35.9
		c11.3,8.5,27.3,6.3,35.9-4.9c4.6-6.1,10.9-10.8,18-13.5h0c4.9-1.9,9.8-2.7,14.6-2.7c16.5,0,32.1,10,38.3,26.4l0,0
		c1.9,4.9,2.7,9.8,2.7,14.6c0,16.5-10,32.1-26.3,38.3l9.1,23.9l-8.5-24.2c-25.7,9.1-42.8,33.3-42.8,60.4l0.1,3.6
		c0.8,14.1,12.9,24.9,27,24.1C271.6,319.2,282.4,307.1,281.6,293L281.6,293z"/>
</g>
</svg>
