<?xml version="1.0" encoding="utf-8"?>
<!-- Svg Vector Icons : http://www.onlinewebfonts.com/icon -->
<!DOCTYPE svg PUBLIC "-//W3C//DTD SVG 1.1//EN" "http://www.w3.org/Graphics/SVG/1.1/DTD/svg11.dtd">
<svg version="1.1" xmlns="http://www.w3.org/2000/svg" xmlns:xlink="http://www.w3.org/1999/xlink" x="0px" y="0px" viewBox="0 0 256 256" enable-background="new 0 0 256 256" xml:space="preserve">
<metadata> Svg Vector Icons : http://www.onlinewebfonts.com/icon </metadata>
<g><g><g><path fill="#FFF" d="M117.2,10.2C76,14.6,41,38.3,22.6,74.7C13.9,91.9,10,108.3,10,127.9c0,10.1,0.4,14.7,2.2,23.6c8.9,44.2,43,80,87,91c26.7,6.7,54.2,3.9,79.2-7.8c20.9-9.9,38.2-25.5,50.5-45.7c24.5-40.1,22.3-92.4-5.5-130.3c-19.4-26.4-46.5-42.7-79.3-47.7C138.4,10,122.9,9.7,117.2,10.2z M140.2,19.2c51.4,6,91.7,46.9,96.6,98.2c5.8,59.8-38.5,113.6-98.4,119.4c-59.2,5.8-112.3-37.3-119.2-96.6C13.9,94.6,38.5,50,80,29.6C98.7,20.5,119.9,16.8,140.2,19.2z"/><path fill="#FFF" d="M80.5,68.6c-2.3,1.1-3.9,2.9-4.6,5.4c-0.3,1.1-0.4,7.8-0.3,19.1c0.1,16.6,0.2,17.4,1.2,18.7c1.7,2.2,3.3,3.2,6.1,3.4c4.4,0.4,5.6-0.6,7.8-6c4.2-10.8,9.5-14.1,22.9-14.5l6.7-0.3v29.6c0,32-0.1,33.4-2.6,38.9c-0.7,1.4-2.1,3.5-3.4,4.7c-2,1.9-3.5,2.8-10.7,5.9c-3.1,1.4-4.2,3.1-4.2,6.3c0,2.3,1.9,5.7,3.9,6.9c1.7,0.9,2.5,1,25.6,1c23.4,0,23.9,0,25.2-1c2.2-1.7,3.2-3.3,3.4-6.1c0.4-4.4-0.6-5.6-6-7.8c-7.7-3.1-11.1-6.4-13.4-13c-1-3.1-1.1-3.6-1.2-34.2l-0.1-31h5.3c9,0,15.4,2,19.2,6c1.9,2,2.8,3.5,5.9,10.7c1.4,3.1,3.1,4.2,6.3,4.2c2.3,0,5.7-1.9,6.9-3.9c0.9-1.6,1-2.7,1.1-18.7c0.1-9.4,0-17.7-0.1-18.6c-0.4-2.1-2.4-4.5-4.9-5.5c-1.8-0.9-4.4-0.9-47.9-0.9C84.7,67.6,82.4,67.7,80.5,68.6z"/></g></g></g>
</svg>