<?xml version="1.0" encoding="utf-8"?>
<!-- Svg Vector Icons : http://www.onlinewebfonts.com/icon -->
<!DOCTYPE svg PUBLIC "-//W3C//DTD SVG 1.1//EN" "http://www.w3.org/Graphics/SVG/1.1/DTD/svg11.dtd">
<svg version="1.1" xmlns="http://www.w3.org/2000/svg" xmlns:xlink="http://www.w3.org/1999/xlink" x="0px" y="0px" viewBox="0 0 256 256" enable-background="new 0 0 256 256" xml:space="preserve">
<metadata> Svg Vector Icons : http://www.onlinewebfonts.com/icon </metadata>
<g><g><path fill="#FFF" d="M128,10C62.9,10,10,62.9,10,128c0,65.1,52.9,118,118,118c65.1,0,118-52.9,118-118C246,62.9,193.1,10,128,10z M128,238.7C67,238.7,17.3,189,17.3,128S67,17.3,128,17.3S238.7,67,238.7,128S189,238.7,128,238.7z"/><path fill="#FFF" d="M204.5,135c0,2.8-1.1,5.3-2.9,7.1c-1.8,1.8-4.3,2.9-7.1,2.9h-73.7c-5.3,0-9.6-4.1-10-9.3c0-0.2,0-0.5,0-0.8V75.9c0-5.5,4.5-10,10-10c2.8,0,5.3,1.1,7.1,2.9c1.8,1.8,2.9,4.3,2.9,7.1V125h63.7C200,125,204.5,129.5,204.5,135z"/><path fill="#FFF" d="M121.3,145.1c-0.2,0-0.4,0-0.6,0c-2.8,0-5.3-1.1-7.1-2.9c-1.7-1.7-2.7-3.9-2.9-6.4c0.4,5.2,4.7,9.3,10,9.3H121.3L121.3,145.1z"/></g></g>
</svg>